# xmcd
#
# Track frame offsets:
#	150
#	13519
#	23858
#	37042
#	48374
#	62732
#	73298
#	88619
#	97873
#	108748
#	118711
#	132055
#	144720
#	157214
#	169126
#	179600
#	193678
#
# Disc length: 2709 seconds
#
# Revision: 0
# Processed by: cddbd v1.5.2PL0 Copyright (c) Steve Scherf et al.
# Submitted via: audiograbber 1.83.01
#
DISCID=f70a9311
DTITLE=Chartbuster Karaoke - CB5104-01
DYEAR=2009
DGENRE=Karaoke
TTITLE0=Patsy Cline - Always
TTITLE1=Patsy Cline - Back  In My Baby's Arms
TTITLE2=Patsy Cline - Crazy
TTITLE3=Patsy Cline - Heartaches
TTITLE4=Patsy Cline - I Fall To Pieces
TTITLE5=Patsy Cline - Blue Moon Over Kentucky
TTITLE6=Patsy Cline - So Wrong
TTITLE7=Patsy Cline - Bill Bailey Won't You Please Come Home
TTITLE8=Patsy Cline - Have You Ever Been Lonely
TTITLE9=Patsy Cline - Anytime
TTITLE10=Patsy Cline - Sweet Dreams
TTITLE11=Patsy Cline - Crazy Arms
TTITLE12=Patsy Cline - San Antonio Rose
TTITLE13=Patsy Cline - Half As Much
TTITLE14=Patsy Cline - Foolin' Around
TTITLE15=Patsy Cline - She's Got You
TTITLE16=Patsy Cline - Walkin' After Midnight
EXTD=
EXTT0=
EXTT1=
EXTT2=
EXTT3=
EXTT4=
EXTT5=
EXTT6=
EXTT7=
EXTT8=
EXTT9=
EXTT10=
EXTT11=
EXTT12=
EXTT13=
EXTT14=
EXTT15=
EXTT16=
PLAYORDER=
